Patient4_TMGait_0pt3_03_right_27_GRF.mot
version=1
nRows=58
nColumns=19
inDegrees=no
endheader
time	F1x	F1y	F1z	M1x	M1y	M1z	F2x	F2y	F2z	M2x	M2y	M2z	EC1x	EC1y	EC1z	EC2x	EC2y	EC2z
50.42	-23.0836	775.0526	56.0488	-313.5939	-64.5995	762.522	-4.007	10.4562	-4.676	4.1743	5.19	8.4836	-0.0592	0.0182	-0.0073	-0.0462	0.0165	0.9585
50.439	-24.1537	799.5386	57.6644	-323.4893	-65.7762	784.6035	-3.216	9.3872	-3.5789	3.5445	4.0199	7.8383	-0.0592	0.0182	-0.0073	-0.0462	0.0165	0.9585
50.458	-24.9721	827.2853	59.5913	-334.7396	-67.0573	809.0167	-2.3625	7.8581	-2.4576	2.8239	2.817	6.7955	-0.0592	0.0182	-0.0073	-0.0462	0.0165	0.9585
50.477	-25.2059	855.3414	61.6644	-346.1683	-68.1937	832.814	-1.5126	6.1981	-1.4425	2.1285	1.711	5.6094	-0.0592	0.0182	-0.0073	-0.0462	0.0165	0.9585
50.496	-24.5434	879.9589	63.6633	-356.2642	-68.8859	852.3621	-0.7812	4.7049	-0.63578	1.5477	0.82002	4.519	-0.0592	0.0182	-0.0073	-0.0462	0.0165	0.9585
50.515	-22.7717	897.2719	65.3325	-363.4568	-68.8335	864.0117	-0.22228	3.508	-0.060281	1.1108	0.17696	3.6289	-0.0592	0.0182	-0.0073	-0.0462	0.0165	0.9585
50.534	-19.8218	904.0465	66.4188	-366.4301	-67.7892	864.8093	0.16176	2.6084	0.30758	0.80313	-0.23812	2.9379	-0.0592	0.0182	-0.0073	-0.0462	0.0165	0.9585
50.553	-15.737	898.3914	66.6917	-364.4196	-65.5645	853.1468	0.39513	1.9206	0.51043	0.58345	-0.46966	2.3757	-0.0592	0.0182	-0.0073	-0.0462	0.0165	0.9585
50.572	-10.6239	880.2572	65.9984	-357.4066	-62.063	829.1899	0.51416	1.3102	0.59651	0.39741	-0.57292	1.8235	-0.0592	0.0182	-0.0073	-0.0462	0.0165	0.9585
50.591	-4.6471	851.5404	64.3368	-346.1555	-57.3466	794.9294	0.55655	0.61578	0.61055	0.18556	-0.6013	1.1346	-0.0592	0.0182	-0.0073	-0.0462	0.0165	0.9585
50.61	1.999	815.8333	61.8819	-332.1095	-51.6512	753.9069	0.56038	-0.32653	0.59244	-0.11084	-0.60303	0.16352	-0.0592	0.0182	-0.0073	-0.0462	0.0165	0.9585
50.629	9.1157	777.8928	58.9476	-317.1765	-45.3427	710.6881	0.56239	-1.6546	0.5753	-0.54184	-0.61662	-1.2128	-0.0592	0.0182	-0.0073	-0.0462	0.0165	0.9585
50.648	16.4977	742.8297	55.9154	-303.4087	-38.8486	670.0952	0.59609	-3.4489	0.584	-1.1363	-0.6705	-3.0679	-0.0592	0.0182	-0.0073	-0.0462	0.0165	0.9585
50.667	23.9458	715.1719	53.1619	-292.629	-32.5857	636.3477	0.69021	-5.6853	0.63228	-1.8849	-0.78159	-5.3706	-0.0592	0.0182	-0.0073	-0.0462	0.0165	0.9585
50.686	31.2685	697.9957	50.9916	-286.0731	-26.9005	612.297	0.86943	-8.1677	0.72227	-2.7198	-0.95612	-7.9175	-0.0592	0.0182	-0.0073	-0.0462	0.0165	0.9585
50.705	38.2621	692.2967	49.5997	-284.1285	-22.045	598.9016	1.1503	-10.4439	0.84216	-3.4859	-1.1843	-10.2537	-0.0592	0.0182	-0.0073	-0.0462	0.0165	0.9585
50.724	44.7315	696.7736	49.0617	-286.2472	-18.1652	595.075	1.5315	-11.7106	0.95933	-3.9092	-1.4314	-11.5795	-0.0592	0.0182	-0.0073	-0.0462	0.0165	0.9585
50.743	50.4941	708.0992	49.3356	-291.0529	-15.3118	597.9766	1.9832	-10.7359	1.0161	-3.5702	-1.6259	-10.659	-0.0592	0.0182	-0.0073	-0.0462	0.0165	0.9585
50.762	55.3675	721.5485	50.2762	-296.5953	-13.4561	603.5928	2.437	-5.8229	0.925	-1.892	-1.6465	-5.7847	-0.0592	0.0182	-0.0073	-0.0462	0.0165	0.9585
50.781	59.1695	731.8289	51.6598	-300.6933	-12.5106	607.4687	2.7701	5.141	0.5719	1.8416	-1.3271	5.1703	-0.0592	0.0182	-0.0073	-0.0462	0.0165	0.9585
50.8	61.7247	734.0036	53.1994	-301.3207	-12.3346	605.4985	2.7857	24.4936	-0.17732	8.4205	-0.45777	24.5572	-0.0592	0.0182	-0.0073	-0.0462	0.0165	0.9585
50.819	62.86	724.2437	54.5563	-296.9203	-12.7412	594.5526	2.2019	54.3751	-1.4631	18.5658	1.2037	54.5411	-0.0592	0.0182	-0.0073	-0.0462	0.0165	0.9585
50.838	62.4208	700.3259	55.3674	-286.6095	-13.5115	572.8606	0.63221	96.0229	-3.4023	32.6899	3.9065	96.3939	-0.0592	0.0182	-0.0073	-0.0462	0.0165	0.9585
50.857	60.3024	661.887	55.3049	-270.28	-14.4267	540.1855	-2.5032	148.9072	-6.0418	50.6021	7.8841	149.6131	-0.0592	0.0182	-0.0073	-0.0462	0.0165	0.9585
50.876	56.5063	610.4591	54.1507	-248.6037	-15.3054	497.8045	-7.5214	210.1618	-9.4494	71.3021	13.2979	211.3394	-0.0592	0.0182	-0.0073	-0.0462	0.0165	0.9585
50.895	51.2356	549.4131	51.8408	-223.0067	-15.9984	448.4057	-14.0077	275.2622	-13.7665	93.2068	20.1203	276.9795	-0.0592	0.0182	-0.0073	-0.0462	0.0165	0.9585
50.914	44.9292	483.5306	48.4767	-195.4922	-16.3849	395.7192	-21.1072	340.317	-18.8054	114.9641	27.8425	342.5172	-0.0592	0.0182	-0.0073	-0.0462	0.0165	0.9585
50.933	38.1708	417.8891	44.3053	-168.1817	-16.3883	343.6299	-27.9845	402.6864	-24.1593	135.6774	35.7533	405.1845	-0.0592	0.0182	-0.0073	-0.0462	0.0165	0.9585
50.952	31.5766	356.6295	39.621	-142.8074	-15.9453	295.2106	-33.9869	460.3452	-29.3657	154.6766	43.155	462.8387	-0.0592	0.0182	-0.0073	-0.0462	0.0165	0.9585
50.971	25.6579	302.2105	34.7097	-120.4012	-15.0282	252.1835	-38.6365	511.7133	-34.0428	171.4445	49.4969	513.8039	-0.0592	0.0182	-0.0073	-0.0462	0.0165	0.9585
50.99	20.6663	255.2176	29.8145	-101.2098	-13.6906	214.838	-41.63	555.7454	-37.977	185.6406	54.4624	556.9672	-0.0592	0.0182	-0.0073	-0.0462	0.0165	0.9585
51.009	16.5901	214.8247	25.1042	-84.8788	-12.0508	182.4233	-42.8624	592.0865	-41.1316	197.158	57.9803	591.9407	-0.0592	0.0182	-0.0073	-0.0462	0.0165	0.9585
51.028	13.2844	179.6416	20.6969	-70.8019	-10.2563	153.8105	-42.4329	621.2427	-43.5754	206.1871	60.1581	619.2242	-0.0592	0.0182	-0.0073	-0.0462	0.0165	0.9585
51.047	10.5507	148.3883	16.6743	-58.4067	-8.4564	128.0148	-40.5853	644.4678	-45.3952	213.1836	61.1801	640.0911	-0.0592	0.0182	-0.0073	-0.0462	0.0165	0.9585
51.066	8.2201	120.2343	13.0966	-47.3065	-6.7753	104.4489	-37.6357	663.3631	-46.6708	218.729	61.2548	656.1885	-0.0592	0.0182	-0.0073	-0.0462	0.0165	0.9585
51.085	6.1985	94.8549	10.0059	-37.3311	-5.2992	82.9483	-33.9388	679.4405	-47.4713	223.3748	60.5956	669.106	-0.0592	0.0182	-0.0073	-0.0462	0.0165	0.9585
51.104	4.4602	72.3131	7.43	-28.4783	-4.0763	63.6585	-29.8554	693.7865	-47.8571	227.523	59.4085	680.0407	-0.0592	0.0182	-0.0073	-0.0462	0.0165	0.9585
51.123	3.0223	52.8378	5.3684	-20.8244	-3.1096	46.8429	-25.7156	706.906	-47.888	231.3685	57.8837	689.6283	-0.0592	0.0182	-0.0073	-0.0462	0.0165	0.9585
51.142	1.8998	36.6015	3.7715	-14.4347	-2.3583	32.7074	-21.7852	718.7574	-47.6272	234.9089	56.1861	697.9621	-0.0592	0.0182	-0.0073	-0.0462	0.0165	0.9585
51.161	1.0695	23.6195	2.5606	-9.3191	-1.7689	21.3216	-18.249	728.9236	-47.1479	238.0008	54.4517	704.7496	-0.0592	0.0182	-0.0073	-0.0462	0.0165	0.9585
51.18	0.47367	13.7467	1.6537	-5.4253	-1.3002	12.6073	-15.2271	736.8238	-46.5416	240.4301	52.8015	709.5215	-0.0592	0.0182	-0.0073	-0.0462	0.0165	0.9585
51.199	0.061281	6.6989	0.983	-2.6451	-0.92286	6.348	-12.8178	741.9985	-45.9182	242.0077	51.3591	711.9114	-0.0592	0.0182	-0.0073	-0.0462	0.0165	0.9585
51.218	-0.2029	2.0781	0.50324	-0.82357	-0.6233	2.2151	-11.1299	744.4185	-45.3911	242.6765	50.2521	711.9605	-0.0592	0.0182	-0.0073	-0.0462	0.0165	0.9585
51.237	-0.35019	-0.59823	0.18717	0.23039	-0.39965	-0.2094	-10.2934	744.6653	-45.0658	242.5767	49.6054	710.2868	-0.0592	0.0182	-0.0073	-0.0462	0.0165	0.9585
51.256	-0.41235	-1.8474	0.0033396	0.72308	-0.24707	-1.3799	-10.441	743.9304	-45.0204	242.0552	49.521	708.0708	-0.0592	0.0182	-0.0073	-0.0462	0.0165	0.9585
51.275	-0.41865	-2.1488	-0.084202	0.84323	-0.15272	-1.7071	-11.6391	743.785	-45.2665	241.6042	50.0231	706.8008	-0.0592	0.0182	-0.0073	-0.0462	0.0165	0.9585
51.294	-0.39581	-1.8938	-0.10621	0.74287	-0.10469	-1.5265	-13.7662	745.8033	-45.7423	241.7512	51.0078	707.8611	-0.0592	0.0182	-0.0073	-0.0462	0.0165	0.9585
51.313	-0.36269	-1.3695	-0.087255	0.5334	-0.091703	-1.0905	-16.4907	751.268	-46.3457	242.9684	52.2621	712.2518	-0.0592	0.0182	-0.0073	-0.0462	0.0165	0.9585
51.332	-0.33102	-0.76527	-0.046542	0.28957	-0.10232	-0.57011	-19.3639	761.0071	-46.9391	245.6138	53.5021	720.4773	-0.0592	0.0182	-0.0073	-0.0462	0.0165	0.9585
51.351	-0.30441	-0.19138	0.0030217	0.055934	-0.12566	-0.066787	-21.9099	775.3114	-47.3614	249.8876	54.4167	732.5165	-0.0592	0.0182	-0.0073	-0.0462	0.0165	0.9585
51.37	-0.28587	0.29662	0.052432	-0.14367	-0.15445	0.36543	-23.7011	793.8136	-47.4552	255.7699	54.7154	747.7612	-0.0592	0.0182	-0.0073	-0.0462	0.0165	0.9585
51.389	-0.27977	0.67788	0.096665	-0.29782	-0.18562	0.70601	-24.4241	815.3416	-47.0917	262.9454	54.1713	764.9295	-0.0592	0.0182	-0.0073	-0.0462	0.0165	0.9585
51.408	-0.28957	0.94919	0.13418	-0.40266	-0.21814	0.94513	-23.929	837.9051	-46.2116	270.7788	52.6796	782.0958	-0.0592	0.0182	-0.0073	-0.0462	0.0165	0.9585
51.427	-0.31658	1.1084	0.16724	-0.46047	-0.25371	1.0747	-22.2606	858.884	-44.8555	278.3733	50.296	796.9033	-0.0592	0.0182	-0.0073	-0.0462	0.0165	0.9585
51.446	-0.35837	1.1478	0.19728	-0.47136	-0.29419	1.0922	-19.6593	875.4174	-43.1537	284.7067	47.2262	806.9301	-0.0592	0.0182	-0.0073	-0.0462	0.0165	0.9585
51.465	-0.41089	1.0479	0.22277	-0.42578	-0.33892	0.98311	-16.4793	884.9622	-41.2821	288.8342	43.76	810.1569	-0.0592	0.0182	-0.0073	-0.0462	0.0165	0.9585
51.484	-0.47214	0.77009	0.24238	-0.30667	-0.38589	0.70762	-13.059	885.8438	-39.4162	290.0935	40.1841	805.376	-0.0592	0.0182	-0.0073	-0.0462	0.0165	0.9585
51.503	-0.54259	0.25995	0.25531	-0.092156	-0.43358	0.20962	-9.6016	877.5941	-37.7023	288.2418	36.717	792.4025	-0.0592	0.0182	-0.0073	-0.0462	0.0165	0.9585
